<svg width="16" height="30" viewBox="0 0 16 30" fill="none" xmlns="http://www.w3.org/2000/svg">
<path d="M15.5133 6.72361V1.88696C14.7262 1.88696 13.6584 1.89801 12.3959 1.93485C9.76549 2.00852 9.1342 2.11535 8.49901 2.30322C7.60664 2.56844 6.58566 2.86682 5.77122 3.77668C4.8165 4.84126 4.66842 6.14896 4.60217 6.72361C4.55541 7.15459 4.57879 7.34614 4.60217 8.19707C4.62555 8.98537 4.64114 10.1163 4.60217 11.5124H0V16.9089H4.36057L4.21249 29.5623H10.3851L10.4474 17.0378H14.3443C14.6054 15.196 14.8626 13.3542 15.1236 11.5124H10.0578V7.8287C10.0733 7.71819 10.1396 7.38298 10.4474 7.09197C10.5293 7.01461 10.7982 6.78254 11.2268 6.72361H15.5133Z" fill="#1877F2"/>
</svg>
