<svg width="28" height="29" viewBox="0 0 28 29" fill="none" xmlns="http://www.w3.org/2000/svg">
<path d="M7.92592 26.9388L8.12747 26.9807H8.33333H17.8333C17.9255 26.9807 18.0454 26.9839 18.1839 26.9876C18.5601 26.9976 19.0729 27.0113 19.5345 26.9744C20.2814 26.9146 21.1071 26.7397 22.2764 26.3653C25.1287 25.4523 26 22.8996 26 20.9927V10.4156V10.3756L25.9984 10.3356C25.9887 10.0922 25.989 9.83112 25.9894 9.5081C25.9895 9.43964 25.9896 9.36839 25.9896 9.29395C25.9896 8.89263 25.9864 8.4237 25.9538 7.94017C25.8901 6.99538 25.7053 5.7985 25.0478 4.70401L25.0213 4.66003L24.9927 4.61746C23.9833 3.11726 22.3266 2.52537 21.2828 2.27283C20.7158 2.13565 20.2034 2.06866 19.8338 2.03523C19.6471 2.01834 19.4918 2.00957 19.3781 2.005C19.3211 2.00271 19.2742 2.00146 19.2387 2.00078L19.1938 2.00014L19.178 2.00003L19.1718 2.00001L19.1691 2L19.1678 2C19.1672 2 19.1667 2 19.1667 4V2H13.1667H8V4C8 2 7.99959 2 7.99917 2L7.99829 2L7.99643 2L7.99221 2.00001L7.98188 2.00007L7.95379 2.00036C7.93186 2.00065 7.90351 2.0012 7.86938 2.00218C7.80129 2.00413 7.70932 2.00785 7.59878 2.01492C7.38014 2.02892 7.07653 2.05684 6.7341 2.11384C6.13774 2.21311 5.06473 2.45377 4.22057 3.15635L5.5 4.69358L4.22057 3.15635C4.18697 3.18432 4.14371 3.21864 4.09283 3.25901C3.78069 3.50665 3.18182 3.98178 2.76649 4.61331C2.2071 5.46388 2 6.45777 2 7.64128V15.2706V19.6055C2 20.9283 2.1955 21.9851 2.63488 22.8994C3.04637 23.7556 3.6147 24.3457 4.00927 24.7554C4.02586 24.7726 4.04214 24.7896 4.05809 24.8061L4.05809 24.8061C5.21802 26.0129 6.77053 26.6984 7.92592 26.9388Z" stroke="#E1E1E1" stroke-width="4"/>
<path d="M18.9997 14.9348V14.8015L18.982 14.6693C18.8745 13.8668 18.5839 12.7085 17.6671 11.7343C16.7087 10.7159 15.3299 10.1733 13.6029 10.1212C11.724 10.0646 10.281 10.7372 9.34758 11.8427C8.48701 12.8619 8.20898 14.071 8.20898 14.9348C8.20898 16.0924 8.54878 17.1301 9.19041 17.9704C9.81944 18.7943 10.6574 19.3237 11.504 19.63L12.1845 17.7493L11.504 19.63C12.8313 20.1103 15.2296 20.5635 17.2279 19.0332C17.8239 18.5768 18.3687 18.0053 18.6869 17.1618C18.9686 16.415 18.9997 15.628 18.9997 14.9348Z" stroke="#E1E1E1" stroke-width="4"/>
<ellipse cx="20.6663" cy="6.97168" rx="1.76471" ry="1.78302" fill="#E1E1E1"/>
</svg>
