<svg width="29" height="30" viewBox="0 0 29 30" fill="none" xmlns="http://www.w3.org/2000/svg">
<path d="M8.06918 27.1589L8.26603 27.1989H8.46688H18.2597C18.3599 27.1989 18.4875 27.2022 18.6332 27.206C19.0203 27.2161 19.5351 27.2294 20.0045 27.1928C20.7631 27.1336 21.6058 26.9601 22.8071 26.5851C25.7011 25.6818 26.6164 23.1365 26.6164 21.1901V10.5581V10.517L26.6147 10.476C26.6047 10.2323 26.605 9.97079 26.6055 9.64608C26.6056 9.57724 26.6056 9.50555 26.6056 9.43059C26.6056 9.02706 26.6024 8.55454 26.5687 8.06706C26.5027 7.11325 26.3111 5.90537 25.632 4.80305L25.6048 4.75891L25.5753 4.71624C24.5412 3.21748 22.851 2.63079 21.7899 2.38044C21.2117 2.24402 20.6889 2.17736 20.3118 2.1441C20.1214 2.1273 19.9632 2.11859 19.8476 2.11407C19.7897 2.1118 19.7421 2.11057 19.7062 2.1099L19.6611 2.10927L19.6453 2.10916L19.6391 2.10914L19.6364 2.10913L19.6352 2.10913C19.6347 2.10913 19.6341 2.10913 19.6341 4.10913V2.10913H13.4492H8.12328V4.10913C8.12328 2.10913 8.12287 2.10913 8.12246 2.10913L8.12161 2.10913L8.11977 2.10913L8.11561 2.10914L8.10534 2.10919L8.07717 2.10948C8.05509 2.10977 8.02642 2.11031 7.99183 2.11128C7.9228 2.11321 7.8293 2.11689 7.71679 2.12391C7.49416 2.13781 7.18499 2.16554 6.83644 2.22212C6.22879 2.32075 5.14175 2.55878 4.28588 3.2534C4.25075 3.28192 4.20574 3.31675 4.15295 3.3576C3.83077 3.6069 3.21878 4.08045 2.79285 4.71201C2.21535 5.56828 2 6.5729 2 7.76933V15.4383V19.7957C2 21.1303 2.2025 22.1978 2.65703 23.12C3.08104 23.9803 3.66545 24.5721 4.07105 24.9827C4.08832 25.0002 4.10527 25.0174 4.12187 25.0342C5.31061 26.2402 6.89716 26.9211 8.06918 27.1589Z" stroke="url(#paint0_linear_300_962)" stroke-width="4"/>
<path d="M19.4004 15.1008V14.9641L19.3818 14.8286C19.27 14.0145 18.9678 12.8483 18.0261 11.8726C17.0486 10.8597 15.6497 10.3241 13.8955 10.2725C11.9941 10.2166 10.5304 10.8779 9.5757 11.9804C8.69096 13.0022 8.40039 14.2219 8.40039 15.1008C8.40039 16.2745 8.75431 17.3222 9.41432 18.1651C10.0594 18.989 10.9142 19.5135 11.7713 19.8159C13.1268 20.2942 15.5534 20.7393 17.5788 19.2268C18.1858 18.7736 18.7467 18.2024 19.0759 17.3513C19.3683 16.5955 19.4004 15.7986 19.4004 15.1008Z" stroke="url(#paint1_linear_300_962)" stroke-width="4"/>
<ellipse cx="21.1799" cy="7.09624" rx="1.81909" ry="1.79228" fill="url(#paint2_linear_300_962)"/>
<defs>
<linearGradient id="paint0_linear_300_962" x1="14.3082" y1="4.10913" x2="14.3082" y2="25.2182" gradientUnits="userSpaceOnUse">
<stop stop-color="#5060E9" stop-opacity="0.54"/>
<stop offset="0.25" stop-color="#CC28B9"/>
<stop offset="0.5" stop-color="#E64FBC"/>
<stop offset="1" stop-color="#EDCD5D"/>
</linearGradient>
<linearGradient id="paint1_linear_300_962" x1="13.9004" y1="12.2692" x2="13.9004" y2="18.2692" gradientUnits="userSpaceOnUse">
<stop stop-color="#E349B8"/>
<stop offset="1" stop-color="#E2D23B"/>
</linearGradient>
<linearGradient id="paint2_linear_300_962" x1="21.1799" y1="5.30396" x2="21.1799" y2="8.88852" gradientUnits="userSpaceOnUse">
<stop stop-color="#505FE8"/>
<stop offset="1" stop-color="#DE44BB"/>
</linearGradient>
</defs>
</svg>
