<svg width="79" height="79" viewBox="0 0 79 79" fill="none" xmlns="http://www.w3.org/2000/svg">
<path fill-rule="evenodd" clip-rule="evenodd" d="M9.87508 39.5C9.87508 35.6096 10.6414 31.7573 12.1302 28.163C13.6189 24.5687 15.8011 21.3029 18.552 18.552C21.303 15.801 24.5688 13.6189 28.1631 12.1301C31.7574 10.6413 35.6097 9.87499 39.5001 9.87499C43.3905 9.87499 47.2428 10.6413 50.8371 12.1301C54.4314 13.6189 57.6972 15.801 60.4481 18.552C63.1991 21.3029 65.3812 24.5687 66.87 28.163C68.3588 31.7573 69.1251 35.6096 69.1251 39.5C69.1251 47.357 66.0039 54.8923 60.4481 60.448C54.8924 66.0038 47.3571 69.125 39.5001 69.125C31.643 69.125 24.1078 66.0038 18.552 60.448C12.9963 54.8923 9.87508 47.357 9.87508 39.5ZM39.5001 3.29166C19.5032 3.29166 3.29175 19.5031 3.29175 39.5C3.29175 59.4969 19.5032 75.7083 39.5001 75.7083C59.497 75.7083 75.7084 59.4969 75.7084 39.5C75.7084 19.5031 59.497 3.29166 39.5001 3.29166ZM48.4106 25.3689C49.0102 24.7481 49.342 23.9166 49.3345 23.0535C49.327 22.1904 48.9808 21.3648 48.3705 20.7545C47.7602 20.1442 46.9346 19.7981 46.0716 19.7906C45.2085 19.7831 44.377 20.1148 43.7562 20.7145L27.2979 37.1728C26.6808 37.7901 26.3341 38.6272 26.3341 39.5C26.3341 40.3728 26.6808 41.2099 27.2979 41.8272L43.7562 58.2855C44.377 58.8851 45.2085 59.2169 46.0716 59.2094C46.9346 59.2019 47.7602 58.8557 48.3705 58.2454C48.9808 57.6351 49.327 56.8095 49.3345 55.9465C49.342 55.0834 49.0102 54.2519 48.4106 53.6311L34.2795 39.5L48.4106 25.3689Z" fill="#E1E1E1"/>
</svg>
