<svg width="79" height="79" viewBox="0 0 79 79" fill="none" xmlns="http://www.w3.org/2000/svg">
<path fill-rule="evenodd" clip-rule="evenodd" d="M9.87508 39.5C9.87508 35.6096 10.6414 31.7573 12.1302 28.163C13.6189 24.5687 15.8011 21.3029 18.552 18.552C21.303 15.801 24.5688 13.6189 28.1631 12.1301C31.7574 10.6413 35.6097 9.87499 39.5001 9.87499C43.3905 9.87499 47.2428 10.6413 50.8371 12.1301C54.4314 13.6189 57.6972 15.801 60.4481 18.552C63.1991 21.3029 65.3812 24.5687 66.87 28.163C68.3588 31.7573 69.1251 35.6096 69.1251 39.5C69.1251 47.357 66.0039 54.8923 60.4481 60.448C54.8924 66.0038 47.3571 69.125 39.5001 69.125C31.643 69.125 24.1078 66.0038 18.552 60.448C12.9963 54.8923 9.87508 47.357 9.87508 39.5V39.5ZM39.5001 3.29166C19.5032 3.29166 3.29175 19.5031 3.29175 39.5C3.29175 59.4969 19.5032 75.7083 39.5001 75.7083C59.497 75.7083 75.7084 59.4969 75.7084 39.5C75.7084 19.5031 59.497 3.29166 39.5001 3.29166ZM35.244 20.7145C34.6231 20.1148 33.7917 19.7831 32.9286 19.7906C32.0655 19.7981 31.2399 20.1442 30.6296 20.7545C30.0193 21.3648 29.6732 22.1904 29.6657 23.0535C29.6582 23.9166 29.9899 24.7481 30.5895 25.3689L44.7207 39.5L30.5895 53.6311C30.2752 53.9348 30.0244 54.298 29.8519 54.6996C29.6794 55.1012 29.5886 55.5331 29.5848 55.9702C29.581 56.4072 29.6642 56.8407 29.8298 57.2452C29.9953 57.6497 30.2397 58.0173 30.5487 58.3263C30.8578 58.6354 31.2253 58.8798 31.6299 59.0453C32.0344 59.2108 32.4678 59.2941 32.9049 59.2903C33.342 59.2865 33.7739 59.1957 34.1755 59.0232C34.5771 58.8507 34.9403 58.5999 35.244 58.2855L51.7023 41.8272C52.3194 41.2099 52.666 40.3728 52.666 39.5C52.666 38.6272 52.3194 37.7901 51.7023 37.1728L35.244 20.7145V20.7145Z" fill="#E1E1E1"/>
</svg>
