<svg width="30" height="29" viewBox="0 0 30 29" fill="none" xmlns="http://www.w3.org/2000/svg">
<ellipse cx="14.7549" cy="14.82" rx="14.7549" ry="13.94" fill="#1ED760"/>
<g clip-path="url(#clip0_300_985)">
<path d="M6.4002 10.2777C6.59737 9.94726 6.91899 9.81406 7.53932 9.56906C7.73225 9.49203 8.18613 9.31355 8.67237 9.22241C12.487 8.50309 17.6882 9.34491 17.6882 9.34491C17.6882 9.34491 20.5136 9.80327 23.2926 11.2313C23.5795 11.38 24.1715 11.6994 24.4014 12.3325C24.6097 12.9073 24.5059 13.7169 24.0352 14.0001C23.6025 14.2585 22.9874 13.9678 21.7536 13.3826C20.7918 12.9279 20.5294 12.6636 19.5178 12.2661C19.4096 12.2248 18.9467 12.0447 18.3969 11.8888C17.6078 11.6681 16.8806 11.5641 15.0221 11.4809C12.9533 11.3877 11.917 11.341 11.2655 11.4299C10.3881 11.5483 9.49689 11.5869 8.62984 11.7561C8.5092 11.7798 7.87585 11.9052 7.12721 11.7357C6.5919 11.6162 6.44074 11.444 6.38197 11.3635C6.15065 11.0418 6.22611 10.5758 6.4002 10.2777Z" fill="#121212"/>
<path d="M6.32488 14.5269C6.50297 14.2144 6.79811 14.0917 7.36179 13.864C7.53581 13.7939 7.95195 13.6258 8.39305 13.5377C11.8687 12.8644 16.6087 13.6493 16.6087 13.6493C16.6087 13.6493 19.1829 14.0753 21.7155 15.4131C21.9762 15.5506 22.516 15.8511 22.724 16.4441C22.9141 16.9825 22.8187 17.7415 22.3897 18.0036C21.9949 18.2444 21.4358 17.9725 20.3102 17.4286C19.4343 17.004 19.1943 16.7546 18.2724 16.3836C18.1754 16.3425 17.7536 16.1774 17.2526 16.0294C16.5347 15.8206 15.8711 15.7283 14.1779 15.6473C12.2931 15.5602 11.347 15.5184 10.7557 15.6008C9.95719 15.7131 9.14498 15.7491 8.35325 15.9085C8.24388 15.9324 7.66706 16.0476 6.98585 15.8899C6.49926 15.7783 6.35918 15.6171 6.30787 15.5404C6.09497 15.2406 6.16242 14.8035 6.32494 14.5233L6.32488 14.5269Z" fill="#121212"/>
<path d="M6.67826 18.5396C6.83635 18.2992 7.09726 18.2013 7.59616 18.0271C7.75115 17.9713 8.11779 17.8423 8.50969 17.7752C11.5807 17.2558 15.7674 17.8738 15.7674 17.8738C15.7674 17.8738 18.0425 18.2089 20.2833 19.2494C20.5144 19.3575 20.9914 19.5921 21.1791 20.0508C21.3487 20.4695 21.2637 21.0585 20.8883 21.2597C20.5395 21.4469 20.0433 21.2338 19.051 20.8075C18.2787 20.4785 18.0641 20.2837 17.2498 19.9938C17.1639 19.9637 16.7904 19.8319 16.3452 19.7172C15.7091 19.5565 15.1242 19.4798 13.6261 19.416C11.9589 19.3463 11.1254 19.3096 10.602 19.3749C9.89421 19.4594 9.17985 19.4859 8.47888 19.6103C8.38091 19.6271 7.87213 19.718 7.26927 19.5939C6.83866 19.5048 6.71676 19.38 6.66889 19.3215C6.4812 19.0872 6.53944 18.7513 6.68214 18.5324L6.67826 18.5396Z" fill="#121212"/>
</g>
<defs>
<clipPath id="clip0_300_985">
<rect width="18.3" height="12.2903" fill="white" transform="matrix(0.999908 0.0135863 -0.0167848 0.999859 6.27002 8.8457)"/>
</clipPath>
</defs>
</svg>
