<svg width="29" height="28" viewBox="0 0 29 28" fill="none" xmlns="http://www.w3.org/2000/svg">
<ellipse cx="14.5" cy="14" rx="14.5" ry="14" fill="#E1E1E1"/>
<g clip-path="url(#clip0_363_1472)">
<path d="M6.28981 9.43812C6.48358 9.1063 6.79965 8.97252 7.40926 8.72646C7.59885 8.6491 8.0449 8.46986 8.52274 8.37832C12.2714 7.6559 17.3828 8.50135 17.3828 8.50135C17.3828 8.50135 20.1594 8.96169 22.8905 10.3958C23.1723 10.5452 23.7542 10.866 23.9801 11.5018C24.1847 12.0791 24.0828 12.8922 23.6202 13.1766C23.195 13.4361 22.5905 13.1441 21.378 12.5564C20.4328 12.0997 20.175 11.8344 19.1809 11.4351C19.0745 11.3937 18.6196 11.2128 18.0793 11.0562C17.3038 10.8346 16.5892 10.7301 14.7628 10.6466C12.7297 10.5529 11.7114 10.506 11.0711 10.5953C10.2088 10.7142 9.33301 10.753 8.48094 10.923C8.36239 10.9468 7.73998 11.0726 7.00427 10.9024C6.4782 10.7824 6.32965 10.6095 6.2719 10.5287C6.04458 10.2056 6.11873 9.73753 6.28981 9.43812Z" fill="#121212"/>
<path d="M6.21576 13.7056C6.39078 13.3917 6.68082 13.2685 7.23476 13.0398C7.40577 12.9695 7.81472 12.8006 8.2482 12.7121C11.6638 12.036 16.3219 12.8242 16.3219 12.8242C16.3219 12.8242 18.8517 13.252 21.3405 14.5955C21.5967 14.7336 22.1272 15.0355 22.3316 15.631C22.5184 16.1718 22.4246 16.934 22.0031 17.1972C21.6151 17.4391 21.0657 17.166 19.9595 16.6198C19.0988 16.1934 18.8629 15.9428 17.9569 15.5703C17.8616 15.529 17.4471 15.3632 16.9547 15.2146C16.2492 15.0048 15.5971 14.9121 13.9331 14.8308C12.0809 14.7433 11.1511 14.7013 10.57 14.7841C9.78533 14.8969 8.98715 14.9331 8.20909 15.0931C8.10162 15.1171 7.53476 15.2329 6.86532 15.0745C6.38713 14.9624 6.24947 14.8005 6.19904 14.7234C5.98982 14.4224 6.05611 13.9833 6.21582 13.702L6.21576 13.7056Z" fill="#121212"/>
<path d="M6.56307 17.7355C6.71843 17.494 6.97483 17.3958 7.46512 17.2208C7.61743 17.1647 7.97773 17.0352 8.36286 16.9678C11.3808 16.4461 15.4952 17.0668 15.4952 17.0668C15.4952 17.0668 17.731 17.4033 19.9331 18.4483C20.1602 18.5569 20.629 18.7925 20.8135 19.2532C20.9801 19.6737 20.8965 20.2652 20.5277 20.4673C20.1849 20.6553 19.6973 20.4412 18.7221 20.0132C17.9632 19.6827 17.7522 19.487 16.952 19.196C16.8676 19.1657 16.5005 19.0333 16.063 18.9182C15.4379 18.7568 14.8631 18.6797 13.3909 18.6157C11.7525 18.5456 10.9334 18.5088 10.4191 18.5744C9.72347 18.6593 9.02145 18.6859 8.33259 18.8108C8.23631 18.8277 7.73632 18.9189 7.14386 18.7943C6.72069 18.7048 6.6009 18.5795 6.55386 18.5207C6.36941 18.2854 6.42664 17.9481 6.56688 17.7282L6.56307 17.7355Z" fill="#121212"/>
</g>
<defs>
<clipPath id="clip0_363_1472">
<rect width="17.9839" height="12.3431" fill="white" transform="matrix(0.999904 0.0138846 -0.0164243 0.999865 6.16174 7.99994)"/>
</clipPath>
</defs>
</svg>
