<svg width="31" height="27" viewBox="0 0 31 27" fill="none" xmlns="http://www.w3.org/2000/svg">
<g clip-path="url(#clip0_363_1471)">
<path d="M-0.061071 21.6971V7.09361C-0.061071 7.09361 0.000194952 3.05968 3.0635 2.46118C6.1268 1.86267 13.7851 1.86267 13.7851 1.86267H25.0172C25.8902 1.91055 28.3051 2.17389 29.6121 4.25669C30.3167 5.3759 30.4392 6.60882 30.6332 9.04474C30.7557 10.5949 30.6383 10.9719 30.6332 15.6283C30.6332 17.3879 30.6485 17.3221 30.6332 18.0223C30.5822 20.5899 30.332 22.6548 30.1227 24.0074C29.9644 24.4922 29.6683 25.1984 29.1016 25.8029C28.1979 26.7665 27.0951 26.9101 22.4644 26.9999C21.7854 27.0119 21.7496 26.9999 18.38 26.9999C16.251 26.9999 15.1891 26.9999 14.8062 26.9999C10.783 27.0358 8.36301 27.371 4.59515 26.9999C3.74763 26.9161 2.57337 26.7725 1.53185 25.8029C1.29189 25.5814 0.250365 24.6119 -0.0151215 22.942C-0.0968096 22.4273 -0.0865986 21.9904 -0.061071 21.6971Z" fill="#E1E1E1"/>
<path d="M10.8604 8.01923V19.6483L19.749 13.9256L10.8604 8.01923Z" fill="#121212"/>
</g>
<defs>
<clipPath id="clip0_363_1471">
<rect width="31" height="27" fill="white"/>
</clipPath>
</defs>
</svg>
