<svg width="32" height="27" viewBox="0 0 32 27" fill="none" xmlns="http://www.w3.org/2000/svg">
<g clip-path="url(#clip0_300_968)">
<path d="M-0.0630411 21.6971V7.09361C-0.0630411 7.09361 0.00020124 3.05968 3.16232 2.46118C6.32444 1.86267 14.2297 1.86267 14.2297 1.86267H25.8242C26.7254 1.91055 29.2182 2.17389 30.5673 4.25669C31.2946 5.3759 31.4211 6.60882 31.6214 9.04474C31.7479 10.5949 31.6267 10.9719 31.6214 15.6283C31.6214 17.3879 31.6372 17.3221 31.6214 18.0223C31.5687 20.5899 31.3104 22.6548 31.0944 24.0074C30.931 24.4922 30.6253 25.1984 30.0403 25.8029C29.1075 26.7665 27.9691 26.9101 23.1891 26.9999C22.4881 27.0119 22.4512 26.9999 18.9729 26.9999C16.7752 26.9999 15.679 26.9999 15.2838 26.9999C11.1309 27.0358 8.63278 27.371 4.74338 26.9999C3.86853 26.9161 2.65638 26.7725 1.58126 25.8029C1.33356 25.5814 0.258441 24.6119 -0.0156093 22.942C-0.0999325 22.4273 -0.0893921 21.9904 -0.0630411 21.6971Z" fill="#FF0000"/>
<path d="M11.2109 8.01929V19.6484L20.3863 13.9257L11.2109 8.01929Z" fill="#E1E1E1"/>
</g>
<defs>
<clipPath id="clip0_300_968">
<rect width="32" height="27" fill="white"/>
</clipPath>
</defs>
</svg>
